<svg width="281" height="281" viewBox="0 0 281 281" fill="none" xmlns="http://www.w3.org/2000/svg">
<path d="M235.103 102.682L175.625 152.208V117.083H93.6667C90.5614 117.083 87.5834 118.317 85.3876 120.513C83.1919 122.708 81.9583 125.686 81.9583 128.792V234.167C81.9583 237.272 80.7248 240.25 78.529 242.446C76.3333 244.641 73.3552 245.875 70.25 245.875H46.8333C43.7281 245.875 40.75 244.641 38.5543 242.446C36.3586 240.25 35.125 237.272 35.125 234.167V117.083C35.125 104.662 40.0592 92.7501 48.8422 83.9672C57.6251 75.1842 69.5374 70.25 81.9583 70.25H175.625V35.125L235.103 84.6512C236.429 85.7499 237.496 87.1275 238.229 88.6858C238.961 90.2441 239.341 91.9448 239.341 93.6667C239.341 95.3886 238.961 97.0893 238.229 98.6476C237.496 100.206 236.429 101.583 235.103 102.682Z" fill="#A9302D"/>
<path d="M235.103 102.682L175.625 152.208V117.083H93.6667C90.5614 117.083 87.5834 118.317 85.3876 120.513C83.1919 122.708 81.9583 125.686 81.9583 128.792V234.167C81.9583 237.272 80.7248 240.25 78.529 242.446C76.3333 244.641 73.3552 245.875 70.25 245.875H46.8333C43.7281 245.875 40.75 244.641 38.5543 242.446C36.3586 240.25 35.125 237.272 35.125 234.167V117.083C35.125 104.662 40.0592 92.7501 48.8422 83.9672C57.6251 75.1842 69.5374 70.25 81.9583 70.25H175.625V35.125L235.103 84.6512C236.429 85.7499 237.496 87.1275 238.229 88.6858C238.961 90.2441 239.341 91.9448 239.341 93.6667C239.341 95.3886 238.961 97.0893 238.229 98.6476C237.496 100.206 236.429 101.583 235.103 102.682Z" stroke="black" stroke-width="10" stroke-linecap="round" stroke-linejoin="round"/>
</svg>
