<svg width="85" height="85" viewBox="0 0 85 85" fill="none" xmlns="http://www.w3.org/2000/svg">
<path d="M42.5 83.2292C38.9584 83.2292 43.1481 77.6369 25.6877 68.9386C24.7311 68.4612 23.8029 67.929 22.9075 67.3448C14.2198 61.6923 8.85419 51.3542 8.85419 40.2263C8.85419 21.9229 23.9169 7.08334 42.5 7.08334C61.0831 7.08334 76.1459 21.9229 76.1459 40.2227C76.1459 52.484 69.615 63.7996 59.3406 68.9244C41.8625 77.6333 46.0417 83.2292 42.5 83.2292ZM42.5 53.5146C49.9765 53.5146 55.9584 47.5929 55.9584 40.3927C55.9584 33.1925 49.9765 27.2708 42.5 27.2708C35.0236 27.2708 29.0417 33.1925 29.0417 40.3927C29.0417 47.5929 35.0236 53.5146 42.5 53.5146Z" fill="#280FC2"/>
</svg>
