<svg width="100" height="100" viewBox="0 0 100 100" fill="none" xmlns="http://www.w3.org/2000/svg">
<path fill-rule="evenodd" clip-rule="evenodd" d="M12.5594 49.9281V78.0875C12.5594 80.5719 13.5469 82.9562 15.3063 84.7156C17.0656 86.475 19.45 87.4625 21.9344 87.4625C23.9281 87.4625 26.1313 87.4625 28.125 87.4625C30.6125 87.4625 32.9969 86.475 34.7531 84.7156C36.5125 82.9562 37.5 80.5719 37.5 78.0875C37.5 73.4438 37.5 67.1406 37.5 62.5C37.5 60.0125 36.5125 57.6281 34.7531 55.8719C32.9969 54.1125 30.6125 53.125 28.125 53.125H18.8094V49.9281C18.8094 32.75 32.7344 18.8281 49.9094 18.8281H50.15C67.325 18.8281 81.25 32.75 81.25 49.9281V53.0875H71.9344C69.45 53.0875 67.0656 54.075 65.3063 55.8312C63.5469 57.5906 62.5594 59.975 62.5594 62.4625C62.5594 67.1219 62.5594 73.4625 62.5594 78.125C62.5594 80.6125 63.5469 82.9969 65.3063 84.7531C67.0656 86.5125 69.45 87.5 71.9344 87.5C73.9281 87.5 76.1313 87.5 78.125 87.5C80.6125 87.5 82.9969 86.5125 84.7531 84.7531C86.5125 82.9969 87.5 80.6125 87.5 78.125V49.9281C87.5 29.3 70.7781 12.5781 50.15 12.5781H49.9094C29.2813 12.5781 12.5594 29.3 12.5594 49.9281Z" fill="black"/>
</svg>
