<svg width="112" height="112" viewBox="0 0 112 112" fill="none" xmlns="http://www.w3.org/2000/svg">
<circle cx="56" cy="56" r="56" fill="black"/>
<path d="M43.6432 34.3756C43.6432 27.5511 49.1755 22.0188 56 22.0188C62.8244 22.0188 68.3568 27.5511 68.3568 34.3756V56C68.3568 62.8244 62.8244 68.3568 56 68.3568C49.1755 68.3568 43.6432 62.8244 43.6432 56V34.3756Z" fill="white"/>
<path d="M38.2371 55.5175V56C38.2371 60.7111 40.1085 65.229 43.4397 68.5604C46.7709 71.8915 51.289 73.7629 56 73.7629C60.711 73.7629 65.229 71.8915 68.5604 68.5604C71.8915 65.229 73.7629 60.7111 73.7629 56V55.5175C73.7629 53.8113 75.1459 52.4283 76.8521 52.4283H78.3967C80.1029 52.4283 81.4859 53.8113 81.4859 55.5172V56C81.4859 62.7592 78.8008 69.2419 74.0212 74.0212C70.1615 77.8811 65.1913 80.3747 59.8615 81.1918V86.892C59.8615 88.5982 58.4785 89.9812 56.7723 89.9812H55.2277C53.5215 89.9812 52.1385 88.5982 52.1385 86.892V81.1918C46.8087 80.3747 41.8384 77.8811 37.9787 74.0212C33.1992 69.2419 30.5141 62.7592 30.5141 56V55.5175C30.5141 53.8113 31.8972 52.4283 33.6033 52.4283H35.1479C36.854 52.4283 38.2371 53.8113 38.2371 55.5175Z" fill="white"/>
</svg>
