<svg width="112" height="112" viewBox="0 0 112 112" fill="none" xmlns="http://www.w3.org/2000/svg">
<circle cx="56" cy="56" r="56" fill="black"/>
<path d="M43.6432 34.3756C43.6432 27.5511 49.1755 22.0188 56 22.0188C62.8244 22.0188 68.3568 27.5511 68.3568 34.3756V56C68.3568 62.8244 62.8244 68.3568 56 68.3568C49.1755 68.3568 43.6432 62.8244 43.6432 56V34.3756Z" fill="white"/>
<path d="M38.2371 55.5174V56C38.2371 60.711 40.1085 65.229 43.4398 68.5603C46.7709 71.8914 51.289 73.7629 56 73.7629C60.711 73.7629 65.229 71.8914 68.5604 68.5603C71.8915 65.229 73.7629 60.711 73.7629 56V55.5174C73.7629 53.8113 75.146 52.4282 76.8521 52.4282H78.3967C80.1029 52.4282 81.4859 53.8113 81.4859 55.5171V56C81.4859 62.7591 78.8008 69.2418 74.0212 74.0211C70.1615 77.8811 65.1913 80.3747 59.8615 81.1918V86.892C59.8615 88.5981 58.4785 89.9812 56.7723 89.9812H55.2277C53.5215 89.9812 52.1385 88.5981 52.1385 86.892V81.1918C46.8087 80.3747 41.8385 77.8811 37.9788 74.0211C33.1992 69.2418 30.5141 62.7591 30.5141 56V55.5174C30.5141 53.8113 31.8972 52.4282 33.6033 52.4282H35.1479C36.854 52.4282 38.2371 53.8113 38.2371 55.5174Z" fill="white"/>
</svg>
