<svg width="79" height="79" viewBox="0 0 79 79" fill="none" xmlns="http://www.w3.org/2000/svg">
<circle cx="39.5" cy="39.5" r="39.5" fill="#A9302D"/>
<path d="M60.061 36.5632H54.1868C52.5631 36.5632 51.2493 37.877 51.2493 39.5007C51.2493 41.1244 52.5631 42.4382 54.1868 42.4382H60.061C61.6847 42.4382 62.9985 41.1244 62.9985 39.5007C62.9985 37.877 61.6847 36.5632 60.061 36.5632Z" fill="black"/>
<path d="M52.5058 30.2954L57.5943 27.3579C58.9998 26.5464 59.4816 24.7501 58.6672 23.3445C57.8579 21.9389 56.0623 21.4572 54.6575 22.2687L49.5683 25.2062C48.1627 26.0176 47.6809 27.8139 48.4954 29.2188C49.3046 30.6251 51.1002 31.1069 52.5058 30.2954Z" fill="black"/>
<path d="M57.5943 51.643L52.5058 48.7062C51.1002 47.8947 49.3076 48.3765 48.4954 49.7813C47.6839 51.1869 48.1627 52.9825 49.5683 53.7947L54.6575 56.7322C56.0624 57.5437 57.8579 57.0619 58.6701 55.6563C59.4823 54.2507 58.9999 52.4552 57.5943 51.643Z" fill="black"/>
<path d="M43.5611 16.2256C42.4654 15.7666 41.203 16.0222 40.36 16.8623L29.4706 27.7509H18.9375C17.3138 27.7509 16 29.0647 16 30.6884V48.3134C16 49.9364 17.3138 51.2502 18.9375 51.2502H29.4706L40.36 62.1395C40.9225 62.702 41.6738 63.0002 42.4368 63.0002C42.8157 63.0002 43.1968 62.9282 43.5611 62.7762C44.6597 62.3231 45.3743 61.2502 45.3743 60.0627V18.9384C45.3743 17.7509 44.6597 16.6787 43.5611 16.2256Z" fill="black"/>
</svg>
