<svg width="37" height="29" viewBox="0 0 37 29" fill="none" xmlns="http://www.w3.org/2000/svg">
<path d="M0.975874 2.9953C0.679874 2.6993 0.535343 2.32352 0.535343 1.86795C0.535343 1.41239 0.679874 1.03661 0.975874 0.74061C1.27187 0.44461 1.64766 0.300079 2.10322 0.300079H35.0702C35.5258 0.300079 35.9016 0.44461 36.1976 0.74061C36.4936 1.03661 36.6381 1.41239 36.6381 1.86795C36.6381 2.32352 36.4936 2.6993 36.1976 2.9953C35.9016 3.2913 35.5258 3.43583 35.0702 3.43583H2.10322C1.64766 3.43583 1.27187 3.2913 0.975874 2.9953ZM36.1976 13.301C36.4936 13.597 36.6381 13.9727 36.6381 14.4283C36.6381 14.8839 36.4936 15.2596 36.1976 15.5556C35.9016 15.8516 35.5258 15.9962 35.0702 15.9962H2.10322C1.64766 15.9962 1.27187 15.8516 0.975874 15.5556C0.679874 15.2596 0.535343 14.8839 0.535343 14.4283C0.535343 13.9727 0.679874 13.597 0.975874 13.301C1.27187 13.005 1.64766 12.8604 2.10322 12.8604H35.0702C35.5258 12.8604 35.9016 13.005 36.1976 13.301ZM36.1976 25.8532C36.4936 26.1492 36.6381 26.525 36.6381 26.9805C36.6381 27.4361 36.4936 27.8119 36.1976 28.1079C35.9016 28.4039 35.5258 28.5484 35.0702 28.5484H2.10322C1.64766 28.5484 1.27187 28.4039 0.975874 28.1079C0.679874 27.8119 0.535343 27.4361 0.535343 26.9805C0.535343 26.525 0.679874 26.1492 0.975874 25.8532C1.27187 25.5572 1.64766 25.4127 2.10322 25.4127H35.0702C35.5258 25.4127 35.9016 25.5641 36.1976 25.8532Z" fill="black"/>
</svg>
