<svg width="37" height="29" viewBox="0 0 37 29" fill="none" xmlns="http://www.w3.org/2000/svg">
<path d="M0.975874 2.99527C0.679874 2.69927 0.535343 2.32349 0.535343 1.86792C0.535343 1.41236 0.679874 1.03658 0.975874 0.74058C1.27187 0.44458 1.64766 0.300049 2.10322 0.300049H35.0702C35.5258 0.300049 35.9016 0.44458 36.1976 0.74058C36.4936 1.03658 36.6381 1.41236 36.6381 1.86792C36.6381 2.32349 36.4936 2.69927 36.1976 2.99527C35.9016 3.29127 35.5258 3.4358 35.0702 3.4358H2.10322C1.64766 3.4358 1.27187 3.29127 0.975874 2.99527ZM36.1976 13.3009C36.4936 13.5969 36.6381 13.9727 36.6381 14.4283C36.6381 14.8838 36.4936 15.2596 36.1976 15.5556C35.9016 15.8516 35.5258 15.9961 35.0702 15.9961H2.10322C1.64766 15.9961 1.27187 15.8516 0.975874 15.5556C0.679874 15.2596 0.535343 14.8838 0.535343 14.4283C0.535343 13.9727 0.679874 13.5969 0.975874 13.3009C1.27187 13.0049 1.64766 12.8604 2.10322 12.8604H35.0702C35.5258 12.8604 35.9016 13.0049 36.1976 13.3009ZM36.1976 25.8532C36.4936 26.1492 36.6381 26.525 36.6381 26.9805C36.6381 27.4361 36.4936 27.8119 36.1976 28.1079C35.9016 28.4039 35.5258 28.5484 35.0702 28.5484H2.10322C1.64766 28.5484 1.27187 28.4039 0.975874 28.1079C0.679874 27.8119 0.535343 27.4361 0.535343 26.9805C0.535343 26.525 0.679874 26.1492 0.975874 25.8532C1.27187 25.5572 1.64766 25.4126 2.10322 25.4126H35.0702C35.5258 25.4126 35.9016 25.5641 36.1976 25.8532Z" fill="black"/>
</svg>
