<svg width="37" height="29" viewBox="0 0 37 29" fill="none" xmlns="http://www.w3.org/2000/svg">
<path d="M0.975874 2.99533C0.679874 2.69933 0.535343 2.32355 0.535343 1.86798C0.535343 1.41242 0.679874 1.03664 0.975874 0.740641C1.27187 0.444641 1.64766 0.30011 2.10322 0.30011H35.0702C35.5258 0.30011 35.9016 0.444641 36.1976 0.740641C36.4936 1.03664 36.6381 1.41242 36.6381 1.86798C36.6381 2.32355 36.4936 2.69933 36.1976 2.99533C35.9016 3.29133 35.5258 3.43586 35.0702 3.43586H2.10322C1.64766 3.43586 1.27187 3.29133 0.975874 2.99533ZM36.1976 13.301C36.4936 13.597 36.6381 13.9728 36.6381 14.4283C36.6381 14.8839 36.4936 15.2597 36.1976 15.5557C35.9016 15.8517 35.5258 15.9962 35.0702 15.9962H2.10322C1.64766 15.9962 1.27187 15.8517 0.975874 15.5557C0.679874 15.2597 0.535343 14.8839 0.535343 14.4283C0.535343 13.9728 0.679874 13.597 0.975874 13.301C1.27187 13.005 1.64766 12.8605 2.10322 12.8605H35.0702C35.5258 12.8605 35.9016 13.005 36.1976 13.301ZM36.1976 25.8532C36.4936 26.1492 36.6381 26.525 36.6381 26.9806C36.6381 27.4361 36.4936 27.8119 36.1976 28.1079C35.9016 28.4039 35.5258 28.5485 35.0702 28.5485H2.10322C1.64766 28.5485 1.27187 28.4039 0.975874 28.1079C0.679874 27.8119 0.535343 27.4361 0.535343 26.9806C0.535343 26.525 0.679874 26.1492 0.975874 25.8532C1.27187 25.5572 1.64766 25.4127 2.10322 25.4127H35.0702C35.5258 25.4127 35.9016 25.5642 36.1976 25.8532Z" fill="white"/>
</svg>
