<svg width="213" height="112" viewBox="0 0 213 112" fill="none" xmlns="http://www.w3.org/2000/svg">
<circle cx="56" cy="56" r="56" fill="black"/>
<path d="M43.6432 34.3756C43.6432 27.5511 49.1756 22.0188 56.0001 22.0188C62.8244 22.0188 68.3569 27.5511 68.3569 34.3756V56C68.3569 62.8244 62.8244 68.3568 56.0001 68.3568C49.1756 68.3568 43.6432 62.8244 43.6432 56V34.3756Z" fill="white"/>
<path d="M38.2371 55.5175V56C38.2371 60.7111 40.1085 65.229 43.4398 68.5604C46.7709 71.8915 51.289 73.7629 56 73.7629C60.711 73.7629 65.229 71.8915 68.5604 68.5604C71.8915 65.229 73.7629 60.7111 73.7629 56V55.5175C73.7629 53.8113 75.146 52.4283 76.8521 52.4283H78.3967C80.1029 52.4283 81.4859 53.8113 81.4859 55.5172V56C81.4859 62.7592 78.8008 69.2419 74.0212 74.0212C70.1615 77.8811 65.1913 80.3747 59.8615 81.1918V86.892C59.8615 88.5982 58.4785 89.9812 56.7723 89.9812H55.2277C53.5215 89.9812 52.1385 88.5982 52.1385 86.892V81.1918C46.8087 80.3747 41.8385 77.8811 37.9788 74.0212C33.1992 69.2419 30.5141 62.7592 30.5141 56V55.5175C30.5141 53.8113 31.8972 52.4283 33.6033 52.4283H35.1479C36.854 52.4283 38.2371 53.8113 38.2371 55.5175Z" fill="white"/>
<circle cx="173.5" cy="55.5" r="39.5" fill="#A9302D"/>
<g clip-path="url(#clip0_28_408)">
<path d="M194.061 52.5632H188.187C186.563 52.5632 185.249 53.877 185.249 55.5007C185.249 57.1244 186.563 58.4382 188.187 58.4382H194.061C195.685 58.4382 196.999 57.1244 196.999 55.5007C196.999 53.877 195.685 52.5632 194.061 52.5632Z" fill="black"/>
<path d="M186.506 46.2954L191.594 43.3579C193 42.5464 193.482 40.7501 192.667 39.3445C191.858 37.9389 190.062 37.4572 188.658 38.2687L183.568 41.2062C182.163 42.0176 181.681 43.8139 182.495 45.2188C183.305 46.6251 185.1 47.1069 186.506 46.2954Z" fill="black"/>
<path d="M191.594 67.6429L186.506 64.7061C185.1 63.8946 183.308 64.3764 182.495 65.7812C181.684 67.1868 182.163 68.9824 183.568 69.7946L188.657 72.7321C190.062 73.5436 191.858 73.0618 192.67 71.6562C193.482 70.2507 193 68.4551 191.594 67.6429Z" fill="black"/>
<path d="M177.561 32.2256C176.465 31.7666 175.203 32.0222 174.36 32.8623L163.471 43.7509H152.938C151.314 43.7509 150 45.0647 150 46.6884V64.3134C150 65.9364 151.314 67.2502 152.938 67.2502H163.471L174.36 78.1395C174.922 78.702 175.674 79.0002 176.437 79.0002C176.816 79.0002 177.197 78.9282 177.561 78.7762C178.66 78.3231 179.374 77.2502 179.374 76.0627V34.9384C179.374 33.7509 178.66 32.6787 177.561 32.2256Z" fill="black"/>
</g>
<defs>
<clipPath id="clip0_28_408">
<rect width="47" height="47" fill="white" transform="translate(150 32)"/>
</clipPath>
</defs>
</svg>
