<svg width="37" height="29" viewBox="0 0 37 37" fill="none" xmlns="http://www.w3.org/2000/svg">
<path d="M0.975874 6.99533C0.679874 6.69933 0.535343 6.32355 0.535343 5.86798C0.535343 5.41242 0.679874 5.03664 0.975874 4.74064C1.27187 4.44464 1.64766 4.30011 2.10322 4.30011H35.0702C35.5258 4.30011 35.9016 4.44464 36.1976 4.74064C36.4936 5.03664 36.6381 5.41242 36.6381 5.86798C36.6381 6.32355 36.4936 6.69933 36.1976 6.99533C35.9016 7.29133 35.5258 7.43586 35.0702 7.43586H2.10322C1.64766 7.43586 1.27187 7.29133 0.975874 6.99533ZM36.1976 17.301C36.4936 17.597 36.6381 17.9728 36.6381 18.4283C36.6381 18.8839 36.4936 19.2597 36.1976 19.5557C35.9016 19.8517 35.5258 19.9962 35.0702 19.9962H2.10322C1.64766 19.9962 1.27187 19.8517 0.975874 19.5557C0.679874 19.2597 0.535343 18.8839 0.535343 18.4283C0.535343 17.9728 0.679874 17.597 0.975874 17.301C1.27187 17.005 1.64766 16.8605 2.10322 16.8605H35.0702C35.5258 16.8605 35.9016 17.005 36.1976 17.301ZM36.1976 29.8532C36.4936 30.1492 36.6381 30.525 36.6381 30.9806C36.6381 31.4361 36.4936 31.8119 36.1976 32.1079C35.9016 32.4039 35.5258 32.5485 35.0702 32.5485H2.10322C1.64766 32.5485 1.27187 32.4039 0.975874 32.1079C0.679874 31.8119 0.535343 31.4361 0.535343 30.9806C0.535343 30.525 0.679874 30.1492 0.975874 29.8532C1.27187 29.5572 1.64766 29.4127 2.10322 29.4127H35.0702C35.5258 29.4127 35.9016 29.5642 36.1976 29.8532Z" fill="white"/>
</svg>
