<svg width="209" height="68" viewBox="0 0 209 68" fill="none" xmlns="http://www.w3.org/2000/svg">
<path d="M2 32C2 15.4315 15.4315 2 32 2H177C193.569 2 207 15.4315 207 32V36C207 52.5685 193.569 66 177 66H32C15.4315 66 2 52.5685 2 36V32Z" fill="white" stroke="black" stroke-width="4"/>
<path d="M56.9616 22.552H59.9856V26.332C59.9856 32.744 57.7456 38.764 52.8456 41.172L50.6056 38.176C54.9736 36.132 56.9616 31.148 56.9616 26.332V22.552ZM57.7176 22.552H60.6856V26.332C60.6856 30.98 62.5336 35.712 66.6776 37.728L64.4376 40.696C59.7616 38.316 57.7176 32.548 57.7176 26.332V22.552ZM67.7136 20.564H71.4656V46.492H67.7136V20.564ZM70.6256 30.532H75.2176V33.64H70.6256V30.532ZM82.1594 29.244H85.8834V34.004H82.1594V29.244ZM91.2874 29.244H94.9834V34.004H91.2874V29.244ZM76.8954 32.856H100.331V35.796H76.8954V32.856ZM88.5714 37.112C94.1714 37.112 97.5594 38.792 97.5594 41.788C97.5594 44.812 94.1714 46.492 88.5714 46.492C82.9434 46.492 79.5554 44.812 79.5554 41.788C79.5554 38.792 82.9434 37.112 88.5714 37.112ZM88.5714 39.912C85.0994 39.912 83.3354 40.5 83.3354 41.788C83.3354 43.104 85.0994 43.692 88.5714 43.692C92.0434 43.692 93.8074 43.104 93.8074 41.788C93.8074 40.5 92.0434 39.912 88.5714 39.912ZM88.6274 20.928C94.3394 20.928 98.0074 22.832 98.0074 25.94C98.0074 29.02 94.3394 30.868 88.6274 30.868C82.8874 30.868 79.2474 29.02 79.2474 25.94C79.2474 22.832 82.8874 20.928 88.6274 20.928ZM88.6274 23.784C85.0714 23.784 83.0834 24.484 83.0834 25.94C83.0834 27.368 85.0714 28.068 88.6274 28.068C92.1834 28.068 94.1714 27.368 94.1714 25.94C94.1714 24.484 92.1834 23.784 88.6274 23.784ZM120.543 36.412C125.919 36.412 129.307 38.288 129.307 41.452C129.307 44.644 125.919 46.52 120.543 46.52C115.139 46.52 111.751 44.644 111.751 41.452C111.751 38.288 115.139 36.412 120.543 36.412ZM120.543 39.324C117.239 39.324 115.447 39.996 115.447 41.452C115.447 42.936 117.239 43.636 120.543 43.636C123.847 43.636 125.611 42.936 125.611 41.452C125.611 39.996 123.847 39.324 120.543 39.324ZM125.275 20.564H128.999V35.824H125.275V20.564ZM127.963 26.584H132.443V29.664H127.963V26.584ZM109.343 22.216H113.039V25.408H118.107V22.216H121.803V34.396H109.343V22.216ZM113.039 28.292V31.484H118.107V28.292H113.039ZM135.437 21.88H139.133V25.156H144.061V21.88H147.701V34.004H135.437V21.88ZM139.133 27.984V31.036H144.061V27.984H139.133ZM146.861 26.472H153.161V29.468H146.861V26.472ZM152.321 20.564H156.045V34.76H152.321V20.564ZM138.825 35.852H142.521V38.176H152.349V35.852H156.045V46.184H138.825V35.852ZM142.521 41.032V43.216H152.349V41.032H142.521Z" fill="black"/>
</svg>
